<?xml version="1.0" standalone="no"?>
<!DOCTYPE svg PUBLIC "-//W3C//DTD SVG 20010904//EN"
 "http://www.w3.org/TR/2001/REC-SVG-20010904/DTD/svg10.dtd">
<svg version="1.0" xmlns="http://www.w3.org/2000/svg"
 width="260.000000pt" height="260.000000pt" viewBox="0 0 260.000000 260.000000"
 preserveAspectRatio="xMidYMid meet">
<metadata>
Created by potrace 1.14, written by Peter Selinger 2001-2017
</metadata>
<g transform="translate(0.000000,260.000000) scale(0.100000,-0.100000)"
fill="#000000" stroke="none">
<path d="M1719 2290 c-15 -25 -43 -81 -64 -125 -51 -111 -146 -234 -202 -264
-32 -16 -88 -13 -111 7 -11 9 -25 40 -32 67 -18 71 -30 91 -41 74 -5 -8 -9
-30 -9 -50 0 -48 -25 -105 -51 -120 -71 -37 -206 58 -337 237 -24 33 -57 79
-75 103 -40 55 -63 66 -53 25 4 -16 14 -36 21 -44 31 -35 84 -167 89 -225 9
-85 -16 -154 -64 -178 -70 -35 -253 5 -394 88 -23 14 -48 25 -54 25 -23 0 -11
-19 26 -41 20 -13 39 -26 42 -29 3 -4 25 -19 50 -33 25 -14 59 -41 75 -58 l30
-32 -55 6 c-75 7 -366 93 -394 116 -6 5 -27 13 -46 19 -19 5 -43 13 -52 17
-14 6 -18 2 -18 -18 0 -19 9 -30 38 -44 93 -47 212 -151 212 -186 0 -7 -18
-17 -42 -23 -43 -9 -43 -9 -40 -50 3 -41 3 -41 -40 -52 -24 -6 -62 -14 -85
-18 l-43 -6 0 -51 c0 -44 4 -55 27 -74 l28 -23 -27 -24 c-26 -24 -28 -30 -28
-108 l0 -83 40 -23 c22 -12 40 -27 40 -32 0 -13 -52 -60 -67 -60 -9 0 -13 -15
-13 -45 l0 -44 88 -3 c85 -3 87 -4 84 -27 -3 -16 0 -22 10 -18 7 3 65 18 128
33 63 15 120 31 126 35 6 5 17 41 24 81 7 40 15 67 18 59 2 -7 -1 -46 -8 -86
l-13 -74 -76 -20 c-42 -11 -92 -25 -111 -30 l-35 -10 41 5 c49 6 55 -3 45 -63
-12 -63 -88 -150 -212 -244 -60 -46 -109 -89 -109 -96 0 -7 3 -13 6 -13 8 0
83 43 134 77 42 28 150 87 295 162 33 16 85 39 115 51 133 49 118 10 -54 -142
-22 -19 -35 -38 -29 -41 10 -6 67 28 152 91 24 17 49 32 55 32 6 0 28 9 48 20
41 22 133 36 170 27 63 -16 98 -84 98 -191 0 -71 -6 -99 -46 -219 -16 -46 -13
-71 5 -51 5 5 37 65 72 133 73 147 102 192 161 247 62 60 93 73 138 62 40 -10
49 -26 81 -135 20 -71 39 -55 39 33 0 71 2 78 28 100 15 13 38 24 51 24 73 0
211 -121 341 -298 76 -104 102 -114 56 -23 -78 152 -101 286 -62 346 27 41 96
68 154 59 73 -10 169 -42 239 -80 62 -33 111 -45 98 -24 -3 6 -43 34 -88 64
-83 55 -125 92 -115 102 7 7 131 -14 188 -32 109 -34 139 -44 199 -68 36 -14
66 -26 68 -26 2 0 3 15 3 34 0 29 -8 39 -60 80 -81 64 -104 98 -96 141 5 27
16 40 50 60 23 13 57 28 74 31 l32 6 0 295 0 295 -29 -4 c-27 -4 -28 -3 -18
19 6 13 8 25 6 27 -4 4 -42 12 -71 15 -4 1 1 16 12 34 11 17 20 35 20 40 0 4
-26 7 -57 8 -49 0 -122 16 -86 18 6 1 14 9 17 19 7 21 72 86 149 149 51 43 74
83 46 83 -6 0 -43 -20 -82 -44 -40 -24 -97 -56 -127 -71 -30 -15 -57 -30 -60
-34 -3 -3 -16 -11 -30 -17 -14 -7 -54 -25 -90 -42 -36 -16 -75 -33 -87 -36
-13 -3 -32 -9 -43 -12 -52 -14 13 69 140 179 59 51 50 62 -16 19 -61 -40 -135
-88 -170 -110 -17 -11 -61 -29 -97 -40 -100 -31 -165 -11 -205 63 -24 44 -20
171 7 272 29 105 25 134 -10 73z m738 -495 c8 -3 -8 -46 -47 -127 -33 -67 -76
-173 -96 -234 l-36 -112 -55 -7 c-30 -4 -57 -4 -61 -1 -5 5 94 467 104 487 4
7 168 1 191 -6z m-649 -197 c-3 -95 -9 -231 -12 -301 -6 -117 -5 -128 11 -125
14 2 26 50 65 253 27 138 50 259 53 271 4 17 19 24 82 37 43 9 83 17 90 17 7
0 2 -30 -13 -82 -43 -147 -82 -310 -104 -438 -12 -69 -23 -134 -26 -145 -3
-17 -18 -24 -86 -38 -46 -10 -93 -20 -105 -23 l-23 -6 0 176 c0 150 -2 176
-15 176 -8 0 -15 -2 -15 -4 0 -8 -71 -331 -73 -332 -3 -2 -185 -44 -190 -44
-2 0 -7 143 -9 318 -3 174 -7 323 -9 331 -3 10 21 20 84 36 l87 23 0 -214 c0
-184 2 -214 15 -214 8 0 15 2 15 5 0 4 82 401 95 461 3 15 16 25 42 31 21 6
40 9 43 7 3 -1 2 -80 -2 -176z m-507 110 c51 -34 91 -122 97 -213 18 -286
-229 -609 -426 -556 -42 12 -90 57 -118 111 -25 50 -30 186 -10 275 38 162
154 332 261 381 68 32 149 32 196 2z m-715 -178 c-3 -82 -9 -217 -12 -300 -6
-135 -5 -150 10 -150 21 0 30 26 46 130 21 141 71 405 78 412 4 4 45 16 90 26
l84 20 -5 -22 c-3 -11 -21 -79 -41 -151 -35 -123 -87 -364 -101 -466 l-6 -46
-94 -21 c-51 -12 -99 -22 -104 -22 -7 0 -11 58 -11 175 0 145 -2 175 -14 175
-18 0 -17 2 -57 -185 -17 -82 -33 -151 -34 -153 -4 -5 -165 -42 -181 -42 -12
0 -14 31 -14 183 -1 100 -5 245 -10 322 -4 77 -5 143 -1 147 4 5 29 10 56 12
28 2 63 9 78 15 16 6 30 11 33 11 3 0 4 -90 4 -201 -1 -110 1 -203 4 -206 19
-19 33 17 55 138 13 74 33 179 45 234 19 89 24 100 46 106 66 18 63 24 56
-141z m1720 -355 c24 -36 14 -38 -17 -4 -17 18 -22 29 -13 29 7 0 21 -11 30
-25z m-40 -16 c21 -17 17 -44 -12 -79 -35 -41 -74 -60 -125 -60 -66 0 -88 43
-47 95 44 56 142 79 184 44z m-938 -50 c-46 -84 -149 -175 -218 -193 -14 -4
-2 5 25 20 60 32 135 102 177 167 37 58 47 62 16 6z m-548 -66 c-6 -48 -13
-89 -15 -91 -2 -3 -234 -62 -242 -62 -2 0 -3 4 -3 9 0 5 23 14 51 20 28 6 82
18 119 27 l67 15 13 90 c7 49 15 87 18 85 2 -3 -1 -44 -8 -93z m907 35 c-3 -8
-6 -5 -6 6 -1 11 2 17 5 13 3 -3 4 -12 1 -19z m-10 -40 c-3 -8 -6 -5 -6 6 -1
11 2 17 5 13 3 -3 4 -12 1 -19z"/>
<path d="M1133 1493 c-43 -25 -77 -69 -115 -150 -27 -55 -33 -81 -33 -135 0
-56 4 -70 24 -92 45 -48 127 -46 185 4 90 79 114 293 41 366 -29 28 -59 30
-102 7z"/>
</g>
</svg>
